<svg width="25" height="24" viewBox="0 0 25 24" fill="none" xmlns="http://www.w3.org/2000/svg">
<mask id="mask0_918_43908" style="mask-type:alpha" maskUnits="userSpaceOnUse" x="0" y="0" width="25" height="24">
<rect x="0.625" width="24" height="24" fill="white"/>
</mask>
<g mask="url(#mask0_918_43908)">
<path d="M12.625 15C13.4583 15 14.1667 14.7083 14.75 14.125C15.3333 13.5417 15.625 12.8333 15.625 12C15.625 11.1667 15.3333 10.4583 14.75 9.875C14.1667 9.29167 13.4583 9 12.625 9C11.7917 9 11.0833 9.29167 10.5 9.875C9.91667 10.4583 9.625 11.1667 9.625 12C9.625 12.8333 9.91667 13.5417 10.5 14.125C11.0833 14.7083 11.7917 15 12.625 15ZM12.625 17C11.2417 17 10.0625 16.5125 9.0875 15.5375C8.1125 14.5625 7.625 13.3833 7.625 12C7.625 10.6167 8.1125 9.4375 9.0875 8.4625C10.0625 7.4875 11.2417 7 12.625 7C14.0083 7 15.1875 7.4875 16.1625 8.4625C17.1375 9.4375 17.625 10.6167 17.625 12C17.625 13.3833 17.1375 14.5625 16.1625 15.5375C15.1875 16.5125 14.0083 17 12.625 17ZM2.625 13C2.34167 13 2.10417 12.9042 1.9125 12.7125C1.72083 12.5208 1.625 12.2833 1.625 12C1.625 11.7167 1.72083 11.4792 1.9125 11.2875C2.10417 11.0958 2.34167 11 2.625 11H4.625C4.90833 11 5.14583 11.0958 5.3375 11.2875C5.52917 11.4792 5.625 11.7167 5.625 12C5.625 12.2833 5.52917 12.5208 5.3375 12.7125C5.14583 12.9042 4.90833 13 4.625 13H2.625ZM20.625 13C20.3417 13 20.1042 12.9042 19.9125 12.7125C19.7208 12.5208 19.625 12.2833 19.625 12C19.625 11.7167 19.7208 11.4792 19.9125 11.2875C20.1042 11.0958 20.3417 11 20.625 11H22.625C22.9083 11 23.1458 11.0958 23.3375 11.2875C23.5292 11.4792 23.625 11.7167 23.625 12C23.625 12.2833 23.5292 12.5208 23.3375 12.7125C23.1458 12.9042 22.9083 13 22.625 13H20.625ZM12.625 5C12.3417 5 12.1042 4.90417 11.9125 4.7125C11.7208 4.52083 11.625 4.28333 11.625 4V2C11.625 1.71667 11.7208 1.47917 11.9125 1.2875C12.1042 1.09583 12.3417 1 12.625 1C12.9083 1 13.1458 1.09583 13.3375 1.2875C13.5292 1.47917 13.625 1.71667 13.625 2V4C13.625 4.28333 13.5292 4.52083 13.3375 4.7125C13.1458 4.90417 12.9083 5 12.625 5ZM12.625 23C12.3417 23 12.1042 22.9042 11.9125 22.7125C11.7208 22.5208 11.625 22.2833 11.625 22V20C11.625 19.7167 11.7208 19.4792 11.9125 19.2875C12.1042 19.0958 12.3417 19 12.625 19C12.9083 19 13.1458 19.0958 13.3375 19.2875C13.5292 19.4792 13.625 19.7167 13.625 20V22C13.625 22.2833 13.5292 22.5208 13.3375 22.7125C13.1458 22.9042 12.9083 23 12.625 23ZM6.275 7.05L5.2 6C5 5.81667 4.90417 5.58333 4.9125 5.3C4.92083 5.01667 5.01667 4.775 5.2 4.575C5.4 4.375 5.64167 4.275 5.925 4.275C6.20833 4.275 6.44167 4.375 6.625 4.575L7.675 5.65C7.85833 5.85 7.95 6.08333 7.95 6.35C7.95 6.61667 7.85833 6.85 7.675 7.05C7.49167 7.25 7.2625 7.34583 6.9875 7.3375C6.7125 7.32917 6.475 7.23333 6.275 7.05ZM18.625 19.425L17.575 18.35C17.3917 18.15 17.3 17.9125 17.3 17.6375C17.3 17.3625 17.3917 17.1333 17.575 16.95C17.7583 16.75 17.9875 16.6542 18.2625 16.6625C18.5375 16.6708 18.775 16.7667 18.975 16.95L20.05 18C20.25 18.1833 20.3458 18.4167 20.3375 18.7C20.3292 18.9833 20.2333 19.225 20.05 19.425C19.85 19.625 19.6083 19.725 19.325 19.725C19.0417 19.725 18.8083 19.625 18.625 19.425ZM17.575 7.05C17.375 6.86667 17.2792 6.6375 17.2875 6.3625C17.2958 6.0875 17.3917 5.85 17.575 5.65L18.625 4.575C18.8083 4.375 19.0417 4.27917 19.325 4.2875C19.6083 4.29583 19.85 4.39167 20.05 4.575C20.25 4.775 20.35 5.01667 20.35 5.3C20.35 5.58333 20.25 5.81667 20.05 6L18.975 7.05C18.775 7.23333 18.5417 7.325 18.275 7.325C18.0083 7.325 17.775 7.23333 17.575 7.05ZM5.2 19.425C5 19.225 4.9 18.9833 4.9 18.7C4.9 18.4167 5 18.1833 5.2 18L6.275 16.95C6.475 16.7667 6.7125 16.675 6.9875 16.675C7.2625 16.675 7.49167 16.7667 7.675 16.95C7.875 17.1333 7.97083 17.3625 7.9625 17.6375C7.95417 17.9125 7.85833 18.15 7.675 18.35L6.625 19.425C6.44167 19.625 6.20833 19.7208 5.925 19.7125C5.64167 19.7042 5.4 19.6083 5.2 19.425Z" fill="white"/>
</g>
</svg>
