<svg width="292" height="48" viewBox="0 0 292 48" fill="none" xmlns="http://www.w3.org/2000/svg">
<path d="M95.405 9.22877C95.405 10.5417 95.1037 11.747 94.501 12.8447C93.8984 13.9209 92.9729 14.7926 91.7245 15.4598C90.4761 16.127 88.9264 16.4607 87.0754 16.4607H83.6532V24.5965H78.1324V1.93231H87.0754C88.8834 1.93231 90.4116 2.2444 91.6599 2.86858C92.9083 3.49276 93.8446 4.3537 94.4687 5.4514C95.0929 6.5491 95.405 7.80822 95.405 9.22877ZM86.6557 12.0699C87.7104 12.0699 88.496 11.8224 89.0125 11.3273C89.5291 10.8323 89.7874 10.1328 89.7874 9.22877C89.7874 8.32479 89.5291 7.62527 89.0125 7.13023C88.496 6.63519 87.7104 6.38767 86.6557 6.38767H83.6532V12.0699H86.6557Z" fill="#202020"/>
<path d="M116.94 24.5965L112.226 16.041H110.903V24.5965H105.382V1.93231H114.648C116.434 1.93231 117.952 2.2444 119.2 2.86858C120.47 3.49276 121.417 4.3537 122.041 5.4514C122.665 6.52758 122.977 7.73289 122.977 9.06735C122.977 10.574 122.547 11.9192 121.686 13.103C120.847 14.2868 119.598 15.1262 117.941 15.6212L123.171 24.5965H116.94ZM110.903 12.1344H114.325C115.337 12.1344 116.09 11.8869 116.585 11.3919C117.101 10.8968 117.36 10.1973 117.36 9.29334C117.36 8.4324 117.101 7.75442 116.585 7.25938C116.09 6.76434 115.337 6.51681 114.325 6.51681H110.903V12.1344Z" fill="#202020"/>
<path d="M144.264 24.8225C142.134 24.8225 140.175 24.3275 138.388 23.3374C136.624 22.3473 135.214 20.9698 134.159 19.2049C133.126 17.4185 132.609 15.4168 132.609 13.1999C132.609 10.9829 133.126 8.99201 134.159 7.22709C135.214 5.46216 136.624 4.08466 138.388 3.09458C140.175 2.1045 142.134 1.60946 144.264 1.60946C146.395 1.60946 148.343 2.1045 150.108 3.09458C151.894 4.08466 153.294 5.46216 154.305 7.22709C155.338 8.99201 155.855 10.9829 155.855 13.1999C155.855 15.4168 155.338 17.4185 154.305 19.2049C153.272 20.9698 151.873 22.3473 150.108 23.3374C148.343 24.3275 146.395 24.8225 144.264 24.8225ZM144.264 19.786C146.072 19.786 147.514 19.1834 148.591 17.9781C149.688 16.7728 150.237 15.18 150.237 13.1999C150.237 11.1982 149.688 9.60543 148.591 8.42164C147.514 7.21633 146.072 6.61367 144.264 6.61367C142.435 6.61367 140.971 7.20556 139.874 8.38936C138.797 9.57315 138.259 11.1766 138.259 13.1999C138.259 15.2015 138.797 16.805 139.874 18.0104C140.971 19.1941 142.435 19.786 144.264 19.786Z" fill="#202020"/>
<path d="M183.302 9.22877C183.302 10.5417 183 11.747 182.398 12.8447C181.795 13.9209 180.869 14.7926 179.621 15.4598C178.373 16.127 176.823 16.4607 174.972 16.4607H171.55V24.5965H166.029V1.93231H174.972C176.78 1.93231 178.308 2.2444 179.556 2.86858C180.805 3.49276 181.741 4.3537 182.365 5.4514C182.989 6.5491 183.302 7.80822 183.302 9.22877ZM174.552 12.0699C175.607 12.0699 176.392 11.8224 176.909 11.3273C177.426 10.8323 177.684 10.1328 177.684 9.22877C177.684 8.32479 177.426 7.62527 176.909 7.13023C176.392 6.63519 175.607 6.38767 174.552 6.38767H171.55V12.0699H174.552Z" fill="#202020"/>
<path d="M198.799 6.35539V10.9399H206.192V15.2015H198.799V20.1735H207.161V24.5965H193.278V1.93231H207.161V6.35539H198.799Z" fill="#202020"/>
<path d="M229.406 24.5965L224.692 16.041H223.369V24.5965H217.848V1.93231H227.114C228.9 1.93231 230.418 2.2444 231.666 2.86858C232.936 3.49276 233.883 4.3537 234.507 5.4514C235.131 6.52758 235.443 7.73289 235.443 9.06735C235.443 10.574 235.013 11.9192 234.152 13.103C233.313 14.2868 232.064 15.1262 230.407 15.6212L235.637 24.5965H229.406ZM223.369 12.1344H226.791C227.803 12.1344 228.556 11.8869 229.051 11.3919C229.567 10.8968 229.826 10.1973 229.826 9.29334C229.826 8.4324 229.567 7.75442 229.051 7.25938C228.556 6.76434 227.803 6.51681 226.791 6.51681H223.369V12.1344Z" fill="#202020"/>
<path d="M262.316 1.93231V6.35539H256.311V24.5965H250.79V6.35539H244.785V1.93231H262.316Z" fill="#202020"/>
<path d="M291.625 1.93231L283.78 17.1064V24.5965H278.259V17.1064L270.414 1.93231H276.677L281.068 11.4242L285.426 1.93231H291.625Z" fill="#202020"/>
<path d="M92.5065 28.1061V41.8775H89.7443V32.9202L86.0548 41.8775H83.9635L80.2543 32.9202V41.8775H77.4921V28.1061H80.6291L85.0092 38.3459L89.3892 28.1061H92.5065Z" fill="#202020"/>
<path d="M94.5271 36.3729C94.5271 35.268 94.7442 34.2881 95.1782 33.4332C95.6254 32.5782 96.2239 31.9205 96.9736 31.4602C97.7365 30.9998 98.5849 30.7696 99.5188 30.7696C100.334 30.7696 101.045 30.9341 101.65 31.2629C102.268 31.5917 102.761 32.006 103.129 32.5059V30.9472H105.911V41.8775H103.129V40.2794C102.774 40.7924 102.281 41.2199 101.65 41.5619C101.031 41.8907 100.315 42.0551 99.499 42.0551C98.5783 42.0551 97.7365 41.8184 96.9736 41.3448C96.2239 40.8713 95.6254 40.2071 95.1782 39.3521C94.7442 38.484 94.5271 37.4909 94.5271 36.3729ZM103.129 36.4124C103.129 35.7416 102.998 35.1694 102.735 34.6959C102.472 34.2092 102.117 33.8409 101.669 33.591C101.222 33.3279 100.742 33.1964 100.229 33.1964C99.7161 33.1964 99.2426 33.3214 98.8085 33.5713C98.3744 33.8212 98.0193 34.1895 97.7431 34.6762C97.48 35.1497 97.3485 35.7153 97.3485 36.3729C97.3485 37.0306 97.48 37.6093 97.7431 38.1091C98.0193 38.5958 98.3744 38.9707 98.8085 39.2337C99.2557 39.4968 99.7292 39.6283 100.229 39.6283C100.742 39.6283 101.222 39.5034 101.669 39.2535C102.117 38.9904 102.472 38.6221 102.735 38.1486C102.998 37.6619 103.129 37.0832 103.129 36.4124Z" fill="#202020"/>
<path d="M114.666 30.7894C115.968 30.7894 117.02 31.2037 117.823 32.0323C118.625 32.8479 119.026 33.9922 119.026 35.4653V41.8775H116.264V35.8402C116.264 34.9721 116.047 34.3079 115.613 33.8475C115.179 33.374 114.587 33.1372 113.837 33.1372C113.075 33.1372 112.469 33.374 112.022 33.8475C111.588 34.3079 111.371 34.9721 111.371 35.8402V41.8775H108.609V30.9472H111.371V32.3086C111.739 31.835 112.206 31.4668 112.772 31.2037C113.351 30.9275 113.982 30.7894 114.666 30.7894Z" fill="#202020"/>
<path d="M120.943 36.3729C120.943 35.268 121.16 34.2881 121.594 33.4332C122.041 32.5782 122.64 31.9205 123.389 31.4602C124.152 30.9998 125.001 30.7696 125.934 30.7696C126.75 30.7696 127.46 30.9341 128.065 31.2629C128.683 31.5917 129.177 32.006 129.545 32.5059V30.9472H132.327V41.8775H129.545V40.2794C129.19 40.7924 128.697 41.2199 128.065 41.5619C127.447 41.8907 126.73 42.0551 125.915 42.0551C124.994 42.0551 124.152 41.8184 123.389 41.3448C122.64 40.8713 122.041 40.2071 121.594 39.3521C121.16 38.484 120.943 37.4909 120.943 36.3729ZM129.545 36.4124C129.545 35.7416 129.413 35.1694 129.15 34.6959C128.887 34.2092 128.532 33.8409 128.085 33.591C127.638 33.3279 127.158 33.1964 126.645 33.1964C126.132 33.1964 125.658 33.3214 125.224 33.5713C124.79 33.8212 124.435 34.1895 124.159 34.6762C123.896 35.1497 123.764 35.7153 123.764 36.3729C123.764 37.0306 123.896 37.6093 124.159 38.1091C124.435 38.5958 124.79 38.9707 125.224 39.2337C125.671 39.4968 126.145 39.6283 126.645 39.6283C127.158 39.6283 127.638 39.5034 128.085 39.2535C128.532 38.9904 128.887 38.6221 129.15 38.1486C129.413 37.6619 129.545 37.0832 129.545 36.4124Z" fill="#202020"/>
<path d="M139.306 30.7696C140.122 30.7696 140.838 30.9341 141.457 31.2629C142.075 31.5786 142.561 31.9929 142.917 32.5059V30.9472H145.699V41.9565C145.699 42.9693 145.495 43.8703 145.087 44.6595C144.679 45.4618 144.068 46.0932 143.252 46.5535C142.437 47.027 141.45 47.2638 140.293 47.2638C138.74 47.2638 137.465 46.9021 136.465 46.1787C135.478 45.4552 134.919 44.4687 134.788 43.2192H137.53C137.675 43.719 137.984 44.1136 138.458 44.403C138.944 44.7055 139.53 44.8568 140.214 44.8568C141.016 44.8568 141.667 44.6134 142.167 44.1268C142.667 43.6532 142.917 42.9298 142.917 41.9565V40.2597C142.561 40.7727 142.068 41.2002 141.437 41.5421C140.819 41.8841 140.108 42.0551 139.306 42.0551C138.385 42.0551 137.544 41.8184 136.781 41.3448C136.018 40.8713 135.413 40.2071 134.965 39.3521C134.531 38.484 134.314 37.4909 134.314 36.3729C134.314 35.268 134.531 34.2881 134.965 33.4332C135.413 32.5782 136.011 31.9205 136.761 31.4602C137.524 30.9998 138.372 30.7696 139.306 30.7696ZM142.917 36.4124C142.917 35.7416 142.785 35.1694 142.522 34.6959C142.259 34.2092 141.904 33.8409 141.457 33.591C141.009 33.3279 140.529 33.1964 140.016 33.1964C139.503 33.1964 139.03 33.3214 138.596 33.5713C138.162 33.8212 137.807 34.1895 137.53 34.6762C137.267 35.1497 137.136 35.7153 137.136 36.3729C137.136 37.0306 137.267 37.6093 137.53 38.1091C137.807 38.5958 138.162 38.9707 138.596 39.2337C139.043 39.4968 139.516 39.6283 140.016 39.6283C140.529 39.6283 141.009 39.5034 141.457 39.2535C141.904 38.9904 142.259 38.6221 142.522 38.1486C142.785 37.6619 142.917 37.0832 142.917 36.4124Z" fill="#202020"/>
<path d="M158.557 36.1756C158.557 36.5702 158.531 36.9254 158.478 37.241H150.488C150.553 38.0302 150.83 38.6484 151.316 39.0956C151.803 39.5428 152.401 39.7665 153.112 39.7665C154.138 39.7665 154.868 39.3258 155.302 38.4446H158.281C157.965 39.4968 157.36 40.3649 156.466 41.0489C155.571 41.7197 154.473 42.0551 153.171 42.0551C152.119 42.0551 151.172 41.8249 150.33 41.3646C149.501 40.8911 148.85 40.2268 148.377 39.3719C147.916 38.5169 147.686 37.5304 147.686 36.4124C147.686 35.2812 147.916 34.2881 148.377 33.4332C148.837 32.5782 149.481 31.9205 150.31 31.4602C151.139 30.9998 152.092 30.7696 153.171 30.7696C154.21 30.7696 155.137 30.9932 155.953 31.4405C156.781 31.8877 157.419 32.5256 157.867 33.3542C158.327 34.1698 158.557 35.1102 158.557 36.1756ZM155.696 35.3864C155.683 34.6762 155.427 34.1106 154.927 33.6897C154.427 33.2556 153.815 33.0386 153.092 33.0386C152.408 33.0386 151.829 33.249 151.356 33.6699C150.895 34.0777 150.613 34.6498 150.507 35.3864H155.696Z" fill="#202020"/>
<path d="M174.147 30.7894C175.489 30.7894 176.568 31.2037 177.383 32.0323C178.212 32.8479 178.626 33.9922 178.626 35.4653V41.8775H175.864V35.8402C175.864 34.9853 175.647 34.3342 175.213 33.887C174.779 33.4266 174.187 33.1964 173.437 33.1964C172.687 33.1964 172.089 33.4266 171.642 33.887C171.208 34.3342 170.991 34.9853 170.991 35.8402V41.8775H168.228V35.8402C168.228 34.9853 168.011 34.3342 167.577 33.887C167.143 33.4266 166.551 33.1964 165.802 33.1964C165.039 33.1964 164.434 33.4266 163.987 33.887C163.552 34.3342 163.335 34.9853 163.335 35.8402V41.8775H160.573V30.9472H163.335V32.2691C163.691 31.8087 164.144 31.447 164.697 31.184C165.262 30.9209 165.881 30.7894 166.551 30.7894C167.406 30.7894 168.169 30.9735 168.84 31.3418C169.511 31.6969 170.03 32.2099 170.399 32.8807C170.754 32.2494 171.267 31.743 171.938 31.3615C172.622 30.9801 173.358 30.7894 174.147 30.7894Z" fill="#202020"/>
<path d="M191.408 36.1756C191.408 36.5702 191.382 36.9254 191.329 37.241H183.339C183.404 38.0302 183.681 38.6484 184.167 39.0956C184.654 39.5428 185.252 39.7665 185.963 39.7665C186.989 39.7665 187.719 39.3258 188.153 38.4446H191.132C190.816 39.4968 190.211 40.3649 189.317 41.0489C188.422 41.7197 187.324 42.0551 186.022 42.0551C184.97 42.0551 184.023 41.8249 183.181 41.3646C182.352 40.8911 181.701 40.2268 181.228 39.3719C180.767 38.5169 180.537 37.5304 180.537 36.4124C180.537 35.2812 180.767 34.2881 181.228 33.4332C181.688 32.5782 182.332 31.9205 183.161 31.4602C183.99 30.9998 184.943 30.7696 186.022 30.7696C187.061 30.7696 187.988 30.9932 188.804 31.4405C189.632 31.8877 190.27 32.5256 190.718 33.3542C191.178 34.1698 191.408 35.1102 191.408 36.1756ZM188.547 35.3864C188.534 34.6762 188.278 34.1106 187.778 33.6897C187.278 33.2556 186.666 33.0386 185.943 33.0386C185.259 33.0386 184.68 33.249 184.207 33.6699C183.746 34.0777 183.464 34.6498 183.358 35.3864H188.547Z" fill="#202020"/>
<path d="M199.481 30.7894C200.783 30.7894 201.836 31.2037 202.638 32.0323C203.44 32.8479 203.842 33.9922 203.842 35.4653V41.8775H201.079V35.8402C201.079 34.9721 200.862 34.3079 200.428 33.8475C199.994 33.374 199.402 33.1372 198.653 33.1372C197.89 33.1372 197.285 33.374 196.838 33.8475C196.403 34.3079 196.186 34.9721 196.186 35.8402V41.8775H193.424V30.9472H196.186V32.3086C196.555 31.835 197.022 31.4668 197.587 31.2037C198.166 30.9275 198.797 30.7894 199.481 30.7894Z" fill="#202020"/>
<path d="M209.684 33.2161V38.5037C209.684 38.872 209.77 39.1417 209.941 39.3127C210.125 39.4705 210.427 39.5494 210.848 39.5494H212.131V41.8775H210.395C208.066 41.8775 206.902 40.7464 206.902 38.484V33.2161H205.6V30.9472H206.902V28.2442H209.684V30.9472H212.131V33.2161H209.684Z" fill="#202020"/>
<path d="M223.574 42.0157C222.613 42.0157 221.745 41.8512 220.969 41.5224C220.206 41.1936 219.601 40.7201 219.154 40.1019C218.707 39.4837 218.477 38.7537 218.464 37.9118H221.423C221.463 38.4774 221.66 38.9246 222.015 39.2535C222.383 39.5823 222.883 39.7467 223.514 39.7467C224.159 39.7467 224.665 39.5955 225.034 39.2929C225.402 38.9773 225.586 38.5695 225.586 38.0697C225.586 37.6619 225.461 37.3265 225.211 37.0635C224.961 36.8004 224.646 36.5965 224.264 36.4518C223.896 36.294 223.383 36.123 222.725 35.9389C221.831 35.6758 221.101 35.4193 220.535 35.1694C219.983 34.9063 219.503 34.5183 219.095 34.0053C218.7 33.4792 218.503 32.7821 218.503 31.914C218.503 31.0985 218.707 30.3882 219.115 29.7831C219.522 29.1781 220.095 28.7177 220.831 28.4021C221.568 28.0732 222.41 27.9088 223.357 27.9088C224.777 27.9088 225.928 28.2574 226.809 28.9545C227.704 29.6385 228.197 30.5986 228.289 31.8351H225.251C225.224 31.3615 225.02 30.9735 224.639 30.671C224.271 30.3553 223.777 30.1975 223.159 30.1975C222.62 30.1975 222.186 30.3356 221.857 30.6118C221.541 30.888 221.384 31.2892 221.384 31.8153C221.384 32.1836 221.502 32.4927 221.739 32.7426C221.989 32.9794 222.291 33.1767 222.646 33.3345C223.015 33.4792 223.528 33.6502 224.185 33.8475C225.08 34.1106 225.81 34.3736 226.375 34.6367C226.941 34.8998 227.428 35.2944 227.835 35.8205C228.243 36.3466 228.447 37.0372 228.447 37.8921C228.447 38.6287 228.256 39.3127 227.875 39.944C227.493 40.5754 226.934 41.0818 226.198 41.4632C225.461 41.8315 224.586 42.0157 223.574 42.0157Z" fill="#202020"/>
<path d="M241.298 30.9472L234.531 47.0468H231.591L233.959 41.6013L229.579 30.9472H232.677L235.498 38.5827L238.359 30.9472H241.298Z" fill="#202020"/>
<path d="M246.97 42.0551C246.076 42.0551 245.273 41.8973 244.563 41.5816C243.853 41.2528 243.287 40.8121 242.866 40.2597C242.459 39.7073 242.235 39.0956 242.196 38.4248H244.977C245.03 38.8457 245.234 39.1943 245.589 39.4705C245.957 39.7467 246.411 39.8848 246.95 39.8848C247.477 39.8848 247.884 39.7796 248.174 39.5692C248.476 39.3587 248.627 39.0891 248.627 38.7602C248.627 38.4051 248.443 38.142 248.075 37.971C247.72 37.7869 247.148 37.5896 246.359 37.3791C245.543 37.1818 244.872 36.978 244.346 36.7675C243.833 36.5571 243.386 36.2348 243.004 35.8008C242.636 35.3667 242.452 34.7814 242.452 34.0448C242.452 33.4397 242.623 32.8873 242.965 32.3875C243.32 31.8877 243.82 31.4931 244.464 31.2037C245.122 30.9143 245.892 30.7696 246.773 30.7696C248.075 30.7696 249.114 31.0985 249.89 31.7561C250.666 32.4006 251.094 33.2753 251.173 34.3802H248.529C248.489 33.9461 248.305 33.6042 247.976 33.3542C247.661 33.0912 247.233 32.9597 246.694 32.9597C246.194 32.9597 245.806 33.0517 245.53 33.2359C245.267 33.42 245.135 33.6765 245.135 34.0053C245.135 34.3736 245.319 34.6564 245.688 34.8537C246.056 35.0379 246.628 35.2286 247.404 35.4259C248.193 35.6232 248.844 35.8271 249.357 36.0375C249.87 36.248 250.311 36.5768 250.679 37.024C251.061 37.4581 251.258 38.0368 251.271 38.7602C251.271 39.3916 251.094 39.9572 250.739 40.457C250.397 40.9568 249.897 41.3514 249.239 41.6408C248.595 41.917 247.838 42.0551 246.97 42.0551Z" fill="#202020"/>
<path d="M256.755 33.2161V38.5037C256.755 38.872 256.84 39.1417 257.011 39.3127C257.195 39.4705 257.498 39.5494 257.919 39.5494H259.201V41.8775H257.465C255.137 41.8775 253.973 40.7464 253.973 38.484V33.2161H252.671V30.9472H253.973V28.2442H256.755V30.9472H259.201V33.2161H256.755Z" fill="#202020"/>
<path d="M271.349 36.1756C271.349 36.5702 271.322 36.9254 271.27 37.241H263.279C263.345 38.0302 263.621 38.6484 264.108 39.0956C264.595 39.5428 265.193 39.7665 265.903 39.7665C266.929 39.7665 267.659 39.3258 268.093 38.4446H271.072C270.757 39.4968 270.152 40.3649 269.257 41.0489C268.363 41.7197 267.265 42.0551 265.962 42.0551C264.91 42.0551 263.963 41.8249 263.121 41.3646C262.293 40.8911 261.642 40.2268 261.168 39.3719C260.708 38.5169 260.478 37.5304 260.478 36.4124C260.478 35.2812 260.708 34.2881 261.168 33.4332C261.628 32.5782 262.273 31.9205 263.102 31.4602C263.93 30.9998 264.884 30.7696 265.962 30.7696C267.002 30.7696 267.929 30.9932 268.744 31.4405C269.573 31.8877 270.211 32.5256 270.658 33.3542C271.119 34.1698 271.349 35.1102 271.349 36.1756ZM268.488 35.3864C268.475 34.6762 268.218 34.1106 267.718 33.6897C267.219 33.2556 266.607 33.0386 265.884 33.0386C265.2 33.0386 264.621 33.249 264.147 33.6699C263.687 34.0777 263.404 34.6498 263.299 35.3864H268.488Z" fill="#202020"/>
<path d="M286.939 30.7894C288.281 30.7894 289.359 31.2037 290.175 32.0323C291.003 32.8479 291.418 33.9922 291.418 35.4653V41.8775H288.655V35.8402C288.655 34.9853 288.438 34.3342 288.004 33.887C287.57 33.4266 286.978 33.1964 286.229 33.1964C285.479 33.1964 284.881 33.4266 284.433 33.887C283.999 34.3342 283.782 34.9853 283.782 35.8402V41.8775H281.02V35.8402C281.02 34.9853 280.803 34.3342 280.369 33.887C279.935 33.4266 279.343 33.1964 278.593 33.1964C277.83 33.1964 277.225 33.4266 276.778 33.887C276.344 34.3342 276.127 34.9853 276.127 35.8402V41.8775H273.365V30.9472H276.127V32.2691C276.482 31.8087 276.936 31.447 277.488 31.184C278.054 30.9209 278.672 30.7894 279.343 30.7894C280.198 30.7894 280.961 30.9735 281.632 31.3418C282.302 31.6969 282.822 32.2099 283.19 32.8807C283.545 32.2494 284.058 31.743 284.729 31.3615C285.413 30.9801 286.15 30.7894 286.939 30.7894Z" fill="#202020"/>
<path d="M47.646 40.0914H23.0956L25.7003 35.8895H45.0413L47.646 40.0914Z" fill="#BB2429"/>
<path d="M31.248 26.9445L25.7003 35.8895L23.0956 40.0914L19.8665 45.2986H14.6643L28.6094 22.986L31.248 26.9445Z" fill="black"/>
<path d="M70.3669 45.2985H65.1647L42.5155 8.77569L37.9019 16.2156L35.371 12.1675L42.5155 0.736328L70.3669 45.2985Z" fill="black"/>
<path d="M52.824 40.0917L47.646 40.0914L45.0413 35.8895L28.2264 8.77582L5.57715 45.2987H0.375L28.2264 0.736465L35.371 12.1675L37.9019 16.2156L52.824 40.0917Z" fill="#BB2429"/>
</svg>
