<svg width="292" height="47" viewBox="0 0 292 47" fill="none" xmlns="http://www.w3.org/2000/svg">
<path d="M95.03 8.49244C95.03 9.80538 94.7287 11.0107 94.126 12.1084C93.5234 13.1846 92.5979 14.0563 91.3495 14.7235C90.1011 15.3907 88.5514 15.7243 86.7004 15.7243H83.2782V23.8602H77.7574V1.19598H86.7004C88.5084 1.19598 90.0366 1.50807 91.2849 2.13226C92.5333 2.75644 93.4696 3.61737 94.0937 4.71507C94.7179 5.81277 95.03 7.07189 95.03 8.49244ZM86.2807 11.3335C87.3354 11.3335 88.121 11.086 88.6375 10.591C89.1541 10.0959 89.4124 9.39643 89.4124 8.49244C89.4124 7.58846 89.1541 6.88895 88.6375 6.39391C88.121 5.89887 87.3354 5.65135 86.2807 5.65135H83.2782V11.3335H86.2807Z" fill="white"/>
<path d="M116.565 23.8602L111.851 15.3046H110.528V23.8602H105.007V1.19598H114.273C116.059 1.19598 117.577 1.50807 118.825 2.13226C120.095 2.75644 121.042 3.61737 121.666 4.71507C122.29 5.79125 122.602 6.99656 122.602 8.33102C122.602 9.83766 122.172 11.1829 121.311 12.3667C120.472 13.5505 119.223 14.3899 117.566 14.8849L122.796 23.8602H116.565ZM110.528 11.3981H113.95C114.962 11.3981 115.715 11.1506 116.21 10.6556C116.726 10.1605 116.985 9.461 116.985 8.55701C116.985 7.69608 116.726 7.01809 116.21 6.52305C115.715 6.02801 114.962 5.78049 113.95 5.78049H110.528V11.3981Z" fill="white"/>
<path d="M143.889 24.0862C141.759 24.0862 139.8 23.5912 138.013 22.6011C136.249 21.611 134.839 20.2335 133.784 18.4686C132.751 16.6821 132.234 14.6804 132.234 12.4635C132.234 10.2466 132.751 8.25569 133.784 6.49076C134.839 4.72584 136.249 3.34833 138.013 2.35825C139.8 1.36817 141.759 0.873133 143.889 0.873133C146.02 0.873133 147.968 1.36817 149.733 2.35825C151.519 3.34833 152.919 4.72584 153.93 6.49076C154.963 8.25569 155.48 10.2466 155.48 12.4635C155.48 14.6804 154.963 16.6821 153.93 18.4686C152.897 20.2335 151.498 21.611 149.733 22.6011C147.968 23.5912 146.02 24.0862 143.889 24.0862ZM143.889 19.0497C145.697 19.0497 147.139 18.4471 148.216 17.2417C149.313 16.0364 149.862 14.4437 149.862 12.4635C149.862 10.4618 149.313 8.86911 148.216 7.68531C147.139 6.48 145.697 5.87734 143.889 5.87734C142.06 5.87734 140.596 6.46924 139.499 7.65303C138.422 8.83682 137.884 10.4403 137.884 12.4635C137.884 14.4652 138.422 16.0687 139.499 17.274C140.596 18.4578 142.06 19.0497 143.889 19.0497Z" fill="white"/>
<path d="M182.927 8.49244C182.927 9.80538 182.625 11.0107 182.023 12.1084C181.42 13.1846 180.494 14.0563 179.246 14.7235C177.998 15.3907 176.448 15.7243 174.597 15.7243H171.175V23.8602H165.654V1.19598H174.597C176.405 1.19598 177.933 1.50807 179.181 2.13226C180.43 2.75644 181.366 3.61737 181.99 4.71507C182.614 5.81277 182.927 7.07189 182.927 8.49244ZM174.177 11.3335C175.232 11.3335 176.017 11.086 176.534 10.591C177.051 10.0959 177.309 9.39643 177.309 8.49244C177.309 7.58846 177.051 6.88895 176.534 6.39391C176.017 5.89887 175.232 5.65135 174.177 5.65135H171.175V11.3335H174.177Z" fill="white"/>
<path d="M198.424 5.61906V10.2036H205.817V14.4652H198.424V19.4371H206.786V23.8602H192.903V1.19598H206.786V5.61906H198.424Z" fill="white"/>
<path d="M229.031 23.8602L224.317 15.3046H222.994V23.8602H217.473V1.19598H226.739C228.525 1.19598 230.043 1.50807 231.291 2.13226C232.561 2.75644 233.508 3.61737 234.132 4.71507C234.756 5.79125 235.068 6.99656 235.068 8.33102C235.068 9.83766 234.638 11.1829 233.777 12.3667C232.938 13.5505 231.689 14.3899 230.032 14.8849L235.262 23.8602H229.031ZM222.994 11.3981H226.416C227.428 11.3981 228.181 11.1506 228.676 10.6556C229.192 10.1605 229.451 9.461 229.451 8.55701C229.451 7.69608 229.192 7.01809 228.676 6.52305C228.181 6.02801 227.428 5.78049 226.416 5.78049H222.994V11.3981Z" fill="white"/>
<path d="M261.941 1.19598V5.61906H255.936V23.8602H250.415V5.61906H244.41V1.19598H261.941Z" fill="white"/>
<path d="M291.25 1.19598L283.405 16.37V23.8602H277.884V16.37L270.039 1.19598H276.302L280.693 10.6878L285.051 1.19598H291.25Z" fill="white"/>
<path d="M92.1315 27.3698V41.1412H89.3693V32.1839L85.6798 41.1412H83.5885L79.8793 32.1839V41.1412H77.1171V27.3698H80.2541L84.6342 37.6096L89.0142 27.3698H92.1315Z" fill="white"/>
<path d="M94.1521 35.6366C94.1521 34.5317 94.3692 33.5518 94.8032 32.6968C95.2504 31.8419 95.8489 31.1842 96.5986 30.7239C97.3615 30.2635 98.2099 30.0333 99.1438 30.0333C99.9593 30.0333 100.67 30.1977 101.275 30.5266C101.893 30.8554 102.386 31.2697 102.754 31.7695V30.2109H105.536V41.1412H102.754V39.5431C102.399 40.0561 101.906 40.4836 101.275 40.8255C100.656 41.1544 99.9395 41.3188 99.124 41.3188C98.2033 41.3188 97.3615 41.082 96.5986 40.6085C95.8489 40.135 95.2504 39.4708 94.8032 38.6158C94.3692 37.7477 94.1521 36.7546 94.1521 35.6366ZM102.754 35.676C102.754 35.0052 102.623 34.4331 102.36 33.9596C102.097 33.4729 101.742 33.1046 101.294 32.8547C100.847 32.5916 100.367 32.4601 99.8541 32.4601C99.3411 32.4601 98.8676 32.585 98.4335 32.8349C97.9994 33.0849 97.6443 33.4532 97.3681 33.9398C97.105 34.4133 96.9735 34.9789 96.9735 35.6366C96.9735 36.2943 97.105 36.873 97.3681 37.3728C97.6443 37.8595 97.9994 38.2344 98.4335 38.4974C98.8807 38.7605 99.3542 38.892 99.8541 38.892C100.367 38.892 100.847 38.7671 101.294 38.5171C101.742 38.2541 102.097 37.8858 102.36 37.4123C102.623 36.9256 102.754 36.3469 102.754 35.676Z" fill="white"/>
<path d="M114.291 30.053C115.593 30.053 116.645 30.4674 117.448 31.296C118.25 32.1115 118.651 33.2559 118.651 34.729V41.1412H115.889V35.1039C115.889 34.2358 115.672 33.5715 115.238 33.1112C114.804 32.6376 114.212 32.4009 113.462 32.4009C112.7 32.4009 112.094 32.6376 111.647 33.1112C111.213 33.5715 110.996 34.2358 110.996 35.1039V41.1412H108.234V30.2109H110.996V31.5722C111.364 31.0987 111.831 30.7304 112.397 30.4674C112.976 30.1911 113.607 30.053 114.291 30.053Z" fill="white"/>
<path d="M120.568 35.6366C120.568 34.5317 120.785 33.5518 121.219 32.6968C121.666 31.8419 122.265 31.1842 123.014 30.7239C123.777 30.2635 124.626 30.0333 125.559 30.0333C126.375 30.0333 127.085 30.1977 127.69 30.5266C128.308 30.8554 128.802 31.2697 129.17 31.7695V30.2109H131.952V41.1412H129.17V39.5431C128.815 40.0561 128.322 40.4836 127.69 40.8255C127.072 41.1544 126.355 41.3188 125.54 41.3188C124.619 41.3188 123.777 41.082 123.014 40.6085C122.265 40.135 121.666 39.4708 121.219 38.6158C120.785 37.7477 120.568 36.7546 120.568 35.6366ZM129.17 35.676C129.17 35.0052 129.038 34.4331 128.775 33.9596C128.512 33.4729 128.157 33.1046 127.71 32.8547C127.263 32.5916 126.783 32.4601 126.27 32.4601C125.757 32.4601 125.283 32.585 124.849 32.8349C124.415 33.0849 124.06 33.4532 123.784 33.9398C123.521 34.4133 123.389 34.9789 123.389 35.6366C123.389 36.2943 123.521 36.873 123.784 37.3728C124.06 37.8595 124.415 38.2344 124.849 38.4974C125.296 38.7605 125.77 38.892 126.27 38.892C126.783 38.892 127.263 38.7671 127.71 38.5171C128.157 38.2541 128.512 37.8858 128.775 37.4123C129.038 36.9256 129.17 36.3469 129.17 35.676Z" fill="white"/>
<path d="M138.931 30.0333C139.747 30.0333 140.463 30.1977 141.082 30.5266C141.7 30.8422 142.186 31.2566 142.542 31.7695V30.2109H145.324V41.2201C145.324 42.2329 145.12 43.1339 144.712 43.9231C144.304 44.7255 143.693 45.3568 142.877 45.8172C142.062 46.2907 141.075 46.5275 139.918 46.5275C138.365 46.5275 137.09 46.1658 136.09 45.4423C135.103 44.7189 134.544 43.7324 134.413 42.4828H137.155C137.3 42.9827 137.609 43.3773 138.083 43.6666C138.569 43.9692 139.155 44.1204 139.839 44.1204C140.641 44.1204 141.292 43.8771 141.792 43.3904C142.292 42.9169 142.542 42.1935 142.542 41.2201V39.5234C142.186 40.0364 141.693 40.4638 141.062 40.8058C140.444 41.1478 139.733 41.3188 138.931 41.3188C138.01 41.3188 137.169 41.082 136.406 40.6085C135.643 40.135 135.038 39.4708 134.59 38.6158C134.156 37.7477 133.939 36.7546 133.939 35.6366C133.939 34.5317 134.156 33.5518 134.59 32.6968C135.038 31.8419 135.636 31.1842 136.386 30.7239C137.149 30.2635 137.997 30.0333 138.931 30.0333ZM142.542 35.676C142.542 35.0052 142.41 34.4331 142.147 33.9596C141.884 33.4729 141.529 33.1046 141.082 32.8547C140.634 32.5916 140.154 32.4601 139.641 32.4601C139.128 32.4601 138.655 32.585 138.221 32.8349C137.787 33.0849 137.432 33.4532 137.155 33.9398C136.892 34.4133 136.761 34.9789 136.761 35.6366C136.761 36.2943 136.892 36.873 137.155 37.3728C137.432 37.8595 137.787 38.2344 138.221 38.4974C138.668 38.7605 139.141 38.892 139.641 38.892C140.154 38.892 140.634 38.7671 141.082 38.5171C141.529 38.2541 141.884 37.8858 142.147 37.4123C142.41 36.9256 142.542 36.3469 142.542 35.676Z" fill="white"/>
<path d="M158.182 35.4393C158.182 35.8339 158.156 36.189 158.103 36.5047H150.113C150.178 37.2939 150.455 37.9121 150.941 38.3593C151.428 38.8065 152.026 39.0301 152.737 39.0301C153.763 39.0301 154.493 38.5895 154.927 37.7082H157.906C157.59 38.7605 156.985 39.6286 156.091 40.3126C155.196 40.9834 154.098 41.3188 152.796 41.3188C151.744 41.3188 150.797 41.0886 149.955 40.6282C149.126 40.1547 148.475 39.4905 148.002 38.6355C147.541 37.7806 147.311 36.7941 147.311 35.676C147.311 34.5449 147.541 33.5518 148.002 32.6968C148.462 31.8419 149.106 31.1842 149.935 30.7239C150.764 30.2635 151.717 30.0333 152.796 30.0333C153.835 30.0333 154.762 30.2569 155.578 30.7041C156.406 31.1513 157.044 31.7893 157.492 32.6179C157.952 33.4334 158.182 34.3739 158.182 35.4393ZM155.321 34.6501C155.308 33.9398 155.052 33.3742 154.552 32.9533C154.052 32.5193 153.44 32.3022 152.717 32.3022C152.033 32.3022 151.454 32.5127 150.981 32.9336C150.52 33.3414 150.238 33.9135 150.132 34.6501H155.321Z" fill="white"/>
<path d="M173.772 30.053C175.114 30.053 176.193 30.4674 177.008 31.296C177.837 32.1115 178.251 33.2559 178.251 34.729V41.1412H175.489V35.1039C175.489 34.2489 175.272 33.5978 174.838 33.1506C174.404 32.6903 173.812 32.4601 173.062 32.4601C172.312 32.4601 171.714 32.6903 171.267 33.1506C170.833 33.5978 170.616 34.2489 170.616 35.1039V41.1412H167.853V35.1039C167.853 34.2489 167.636 33.5978 167.202 33.1506C166.768 32.6903 166.176 32.4601 165.427 32.4601C164.664 32.4601 164.059 32.6903 163.612 33.1506C163.177 33.5978 162.96 34.2489 162.96 35.1039V41.1412H160.198V30.2109H162.96V31.5328C163.316 31.0724 163.769 30.7107 164.322 30.4476C164.887 30.1846 165.506 30.053 166.176 30.053C167.031 30.053 167.794 30.2372 168.465 30.6055C169.136 30.9606 169.655 31.4736 170.024 32.1444C170.379 31.5131 170.892 31.0066 171.563 30.6252C172.247 30.2438 172.983 30.053 173.772 30.053Z" fill="white"/>
<path d="M191.033 35.4393C191.033 35.8339 191.007 36.189 190.954 36.5047H182.964C183.029 37.2939 183.306 37.9121 183.792 38.3593C184.279 38.8065 184.877 39.0301 185.588 39.0301C186.614 39.0301 187.344 38.5895 187.778 37.7082H190.757C190.441 38.7605 189.836 39.6286 188.942 40.3126C188.047 40.9834 186.949 41.3188 185.647 41.3188C184.595 41.3188 183.648 41.0886 182.806 40.6282C181.977 40.1547 181.326 39.4905 180.853 38.6355C180.392 37.7806 180.162 36.7941 180.162 35.676C180.162 34.5449 180.392 33.5518 180.853 32.6968C181.313 31.8419 181.957 31.1842 182.786 30.7239C183.615 30.2635 184.568 30.0333 185.647 30.0333C186.686 30.0333 187.613 30.2569 188.429 30.7041C189.257 31.1513 189.895 31.7893 190.343 32.6179C190.803 33.4334 191.033 34.3739 191.033 35.4393ZM188.172 34.6501C188.159 33.9398 187.903 33.3742 187.403 32.9533C186.903 32.5193 186.291 32.3022 185.568 32.3022C184.884 32.3022 184.305 32.5127 183.832 32.9336C183.371 33.3414 183.089 33.9135 182.983 34.6501H188.172Z" fill="white"/>
<path d="M199.106 30.053C200.408 30.053 201.461 30.4674 202.263 31.296C203.065 32.1115 203.467 33.2559 203.467 34.729V41.1412H200.704V35.1039C200.704 34.2358 200.487 33.5715 200.053 33.1112C199.619 32.6376 199.027 32.4009 198.278 32.4009C197.515 32.4009 196.91 32.6376 196.463 33.1112C196.028 33.5715 195.811 34.2358 195.811 35.1039V41.1412H193.049V30.2109H195.811V31.5722C196.18 31.0987 196.647 30.7304 197.212 30.4674C197.791 30.1911 198.422 30.053 199.106 30.053Z" fill="white"/>
<path d="M209.309 32.4798V37.7674C209.309 38.1357 209.395 38.4053 209.566 38.5763C209.75 38.7342 210.052 38.8131 210.473 38.8131H211.756V41.1412H210.02C207.691 41.1412 206.527 40.01 206.527 37.7477V32.4798H205.225V30.2109H206.527V27.5079H209.309V30.2109H211.756V32.4798H209.309Z" fill="white"/>
<path d="M223.199 41.2793C222.238 41.2793 221.37 41.1149 220.594 40.7861C219.831 40.4573 219.226 39.9837 218.779 39.3655C218.332 38.7473 218.102 38.0173 218.089 37.1755H221.048C221.088 37.7411 221.285 38.1883 221.64 38.5171C222.008 38.846 222.508 39.0104 223.139 39.0104C223.784 39.0104 224.29 38.8591 224.659 38.5566C225.027 38.2409 225.211 37.8332 225.211 37.3334C225.211 36.9256 225.086 36.5902 224.836 36.3271C224.586 36.0641 224.271 35.8602 223.889 35.7155C223.521 35.5577 223.008 35.3867 222.35 35.2025C221.456 34.9395 220.726 34.683 220.16 34.4331C219.608 34.17 219.128 33.782 218.72 33.269C218.325 32.7429 218.128 32.0458 218.128 31.1776C218.128 30.3621 218.332 29.6519 218.74 29.0468C219.147 28.4418 219.72 27.9814 220.456 27.6657C221.193 27.3369 222.035 27.1725 222.982 27.1725C224.402 27.1725 225.553 27.521 226.434 28.2182C227.329 28.9021 227.822 29.8623 227.914 31.0987H224.876C224.849 30.6252 224.645 30.2372 224.264 29.9347C223.896 29.619 223.402 29.4611 222.784 29.4611C222.245 29.4611 221.811 29.5993 221.482 29.8755C221.166 30.1517 221.009 30.5529 221.009 31.079C221.009 31.4473 221.127 31.7564 221.364 32.0063C221.614 32.2431 221.916 32.4404 222.271 32.5982C222.64 32.7429 223.153 32.9139 223.81 33.1112C224.705 33.3742 225.435 33.6373 226 33.9004C226.566 34.1634 227.053 34.558 227.46 35.0842C227.868 35.6103 228.072 36.3008 228.072 37.1558C228.072 37.8924 227.881 38.5763 227.5 39.2077C227.118 39.839 226.559 40.3455 225.823 40.7269C225.086 41.0952 224.211 41.2793 223.199 41.2793Z" fill="white"/>
<path d="M240.923 30.2109L234.156 46.3104H231.216L233.584 40.865L229.204 30.2109H232.302L235.123 37.8463L237.984 30.2109H240.923Z" fill="white"/>
<path d="M246.595 41.3188C245.701 41.3188 244.898 41.161 244.188 40.8453C243.478 40.5164 242.912 40.0758 242.491 39.5234C242.084 38.9709 241.86 38.3593 241.821 37.6885H244.602C244.655 38.1094 244.859 38.458 245.214 38.7342C245.582 39.0104 246.036 39.1485 246.575 39.1485C247.102 39.1485 247.509 39.0433 247.799 38.8328C248.101 38.6224 248.252 38.3527 248.252 38.0239C248.252 37.6688 248.068 37.4057 247.7 37.2347C247.345 37.0506 246.773 36.8533 245.984 36.6428C245.168 36.4455 244.497 36.2416 243.971 36.0312C243.458 35.8207 243.011 35.4985 242.629 35.0644C242.261 34.6304 242.077 34.045 242.077 33.3085C242.077 32.7034 242.248 32.151 242.59 31.6512C242.945 31.1513 243.445 30.7567 244.089 30.4674C244.747 30.178 245.517 30.0333 246.398 30.0333C247.7 30.0333 248.739 30.3621 249.515 31.0198C250.291 31.6643 250.719 32.539 250.798 33.6439H248.154C248.114 33.2098 247.93 32.8678 247.601 32.6179C247.286 32.3549 246.858 32.2233 246.319 32.2233C245.819 32.2233 245.431 32.3154 245.155 32.4995C244.892 32.6837 244.76 32.9402 244.76 33.269C244.76 33.6373 244.944 33.9201 245.313 34.1174C245.681 34.3015 246.253 34.4923 247.029 34.6896C247.818 34.8869 248.469 35.0907 248.982 35.3012C249.495 35.5116 249.936 35.8405 250.304 36.2877C250.686 36.7217 250.883 37.3005 250.896 38.0239C250.896 38.6553 250.719 39.2208 250.364 39.7207C250.022 40.2205 249.522 40.6151 248.864 40.9045C248.22 41.1807 247.463 41.3188 246.595 41.3188Z" fill="white"/>
<path d="M256.38 32.4798V37.7674C256.38 38.1357 256.465 38.4053 256.636 38.5763C256.82 38.7342 257.123 38.8131 257.544 38.8131H258.826V41.1412H257.09C254.762 41.1412 253.598 40.01 253.598 37.7477V32.4798H252.296V30.2109H253.598V27.5079H256.38V30.2109H258.826V32.4798H256.38Z" fill="white"/>
<path d="M270.974 35.4393C270.974 35.8339 270.947 36.189 270.895 36.5047H262.904C262.97 37.2939 263.246 37.9121 263.733 38.3593C264.22 38.8065 264.818 39.0301 265.528 39.0301C266.554 39.0301 267.284 38.5895 267.718 37.7082H270.697C270.382 38.7605 269.777 39.6286 268.882 40.3126C267.988 40.9834 266.89 41.3188 265.587 41.3188C264.535 41.3188 263.588 41.0886 262.746 40.6282C261.918 40.1547 261.267 39.4905 260.793 38.6355C260.333 37.7806 260.103 36.7941 260.103 35.676C260.103 34.5449 260.333 33.5518 260.793 32.6968C261.253 31.8419 261.898 31.1842 262.727 30.7239C263.555 30.2635 264.509 30.0333 265.587 30.0333C266.627 30.0333 267.554 30.2569 268.369 30.7041C269.198 31.1513 269.836 31.7893 270.283 32.6179C270.744 33.4334 270.974 34.3739 270.974 35.4393ZM268.113 34.6501C268.1 33.9398 267.843 33.3742 267.343 32.9533C266.844 32.5193 266.232 32.3022 265.509 32.3022C264.825 32.3022 264.246 32.5127 263.772 32.9336C263.312 33.3414 263.029 33.9135 262.924 34.6501H268.113Z" fill="white"/>
<path d="M286.564 30.053C287.906 30.053 288.984 30.4674 289.8 31.296C290.628 32.1115 291.043 33.2559 291.043 34.729V41.1412H288.28V35.1039C288.28 34.2489 288.063 33.5978 287.629 33.1506C287.195 32.6903 286.603 32.4601 285.854 32.4601C285.104 32.4601 284.506 32.6903 284.058 33.1506C283.624 33.5978 283.407 34.2489 283.407 35.1039V41.1412H280.645V35.1039C280.645 34.2489 280.428 33.5978 279.994 33.1506C279.56 32.6903 278.968 32.4601 278.218 32.4601C277.455 32.4601 276.85 32.6903 276.403 33.1506C275.969 33.5978 275.752 34.2489 275.752 35.1039V41.1412H272.99V30.2109H275.752V31.5328C276.107 31.0724 276.561 30.7107 277.113 30.4476C277.679 30.1846 278.297 30.053 278.968 30.053C279.823 30.053 280.586 30.2372 281.257 30.6055C281.927 30.9606 282.447 31.4736 282.815 32.1444C283.17 31.5131 283.683 31.0066 284.354 30.6252C285.038 30.2438 285.775 30.053 286.564 30.053Z" fill="white"/>
<path d="M47.271 39.3551H22.7206L25.3253 35.1532H44.6663L47.271 39.3551Z" fill="#BB2429"/>
<path d="M30.873 26.2082L25.3253 35.1532L22.7206 39.3551L19.4915 44.5623H14.2893L28.2344 22.2497L30.873 26.2082Z" fill="white"/>
<path d="M69.9919 44.5622H64.7897L42.1405 8.03936L37.5269 15.4793L34.996 11.4312L42.1405 0L69.9919 44.5622Z" fill="white"/>
<path d="M52.449 39.3553L47.271 39.3551L44.6663 35.1532L27.8514 8.0395L5.20215 44.5623H0L27.8514 0.000137064L34.996 11.4312L37.5269 15.4793L52.449 39.3553Z" fill="#BB2429"/>
</svg>
