<svg width="21" height="19" viewBox="0 0 21 19" fill="none" xmlns="http://www.w3.org/2000/svg">
<path d="M2.5 18.9766C1.95 18.9766 1.47917 18.7807 1.0875 18.3891C0.695833 17.9974 0.5 17.5266 0.5 16.9766V2.97656C0.5 2.42656 0.695833 1.95573 1.0875 1.56406C1.47917 1.1724 1.95 0.976562 2.5 0.976562H8.5C9.05 0.976562 9.52083 1.1724 9.9125 1.56406C10.3042 1.95573 10.5 2.42656 10.5 2.97656V4.97656H18.5C19.05 4.97656 19.5208 5.1724 19.9125 5.56406C20.3042 5.95573 20.5 6.42656 20.5 6.97656V16.9766C20.5 17.5266 20.3042 17.9974 19.9125 18.3891C19.5208 18.7807 19.05 18.9766 18.5 18.9766H2.5ZM2.5 16.9766H4.5V14.9766H2.5V16.9766ZM2.5 12.9766H4.5V10.9766H2.5V12.9766ZM2.5 8.97656H4.5V6.97656H2.5V8.97656ZM2.5 4.97656H4.5V2.97656H2.5V4.97656ZM6.5 16.9766H8.5V14.9766H6.5V16.9766ZM6.5 12.9766H8.5V10.9766H6.5V12.9766ZM6.5 8.97656H8.5V6.97656H6.5V8.97656ZM6.5 4.97656H8.5V2.97656H6.5V4.97656ZM10.5 16.9766H18.5V6.97656H10.5V8.97656H12.5V10.9766H10.5V12.9766H12.5V14.9766H10.5V16.9766ZM14.5 10.9766V8.97656H16.5V10.9766H14.5ZM14.5 14.9766V12.9766H16.5V14.9766H14.5Z" fill="#343A40"/>
</svg>
