<svg width="23" height="15" viewBox="0 0 23 15" fill="none" xmlns="http://www.w3.org/2000/svg">
<path d="M2.5 14.9766C1.95 14.9766 1.47917 14.7807 1.0875 14.3891C0.695833 13.9974 0.5 13.5266 0.5 12.9766V2.97656C0.5 2.42656 0.695833 1.95573 1.0875 1.56406C1.47917 1.1724 1.95 0.976562 2.5 0.976562H12.5C13.05 0.976562 13.5208 1.1724 13.9125 1.56406C14.3042 1.95573 14.5 2.42656 14.5 2.97656V12.9766C14.5 13.5266 14.3042 13.9974 13.9125 14.3891C13.5208 14.7807 13.05 14.9766 12.5 14.9766H2.5ZM2.5 11.3266C3.23333 10.8932 4.01667 10.5599 4.85 10.3266C5.68333 10.0932 6.56667 9.97656 7.5 9.97656C8.43333 9.97656 9.31667 10.0932 10.15 10.3266C10.9833 10.5599 11.7667 10.8932 12.5 11.3266V2.97656H2.5V11.3266ZM7.5 11.9766C6.81667 11.9766 6.15 12.0599 5.5 12.2266C4.85 12.3932 4.23333 12.6432 3.65 12.9766H11.35C10.7667 12.6432 10.15 12.3932 9.5 12.2266C8.85 12.0599 8.18333 11.9766 7.5 11.9766ZM7.5 9.22656C6.75 9.22656 6.10417 8.95573 5.5625 8.41406C5.02083 7.8724 4.75 7.22656 4.75 6.47656C4.75 5.72656 5.02083 5.08073 5.5625 4.53906C6.10417 3.9974 6.75 3.72656 7.5 3.72656C8.25 3.72656 8.89583 3.9974 9.4375 4.53906C9.97917 5.08073 10.25 5.72656 10.25 6.47656C10.25 7.22656 9.97917 7.8724 9.4375 8.41406C8.89583 8.95573 8.25 9.22656 7.5 9.22656ZM7.5 7.37656C7.75 7.37656 7.9625 7.28906 8.1375 7.11406C8.3125 6.93906 8.4 6.72656 8.4 6.47656C8.4 6.22656 8.3125 6.01406 8.1375 5.83906C7.9625 5.66406 7.75 5.57656 7.5 5.57656C7.25 5.57656 7.0375 5.66406 6.8625 5.83906C6.6875 6.01406 6.6 6.22656 6.6 6.47656C6.6 6.72656 6.6875 6.93906 6.8625 7.11406C7.0375 7.28906 7.25 7.37656 7.5 7.37656ZM17.5 14.9766C17.2167 14.9766 16.9792 14.8807 16.7875 14.6891C16.5958 14.4974 16.5 14.2599 16.5 13.9766V1.97656C16.5 1.69323 16.5958 1.45573 16.7875 1.26406C16.9792 1.0724 17.2167 0.976562 17.5 0.976562C17.7833 0.976562 18.0208 1.0724 18.2125 1.26406C18.4042 1.45573 18.5 1.69323 18.5 1.97656V13.9766C18.5 14.2599 18.4042 14.4974 18.2125 14.6891C18.0208 14.8807 17.7833 14.9766 17.5 14.9766ZM21.5 14.9766C21.2167 14.9766 20.9792 14.8807 20.7875 14.6891C20.5958 14.4974 20.5 14.2599 20.5 13.9766V1.97656C20.5 1.69323 20.5958 1.45573 20.7875 1.26406C20.9792 1.0724 21.2167 0.976562 21.5 0.976562C21.7833 0.976562 22.0208 1.0724 22.2125 1.26406C22.4042 1.45573 22.5 1.69323 22.5 1.97656V13.9766C22.5 14.2599 22.4042 14.4974 22.2125 14.6891C22.0208 14.8807 21.7833 14.9766 21.5 14.9766Z" fill="#1C1B1F"/>
</svg>
