<svg width="25" height="25" viewBox="0 0 25 25" fill="none" xmlns="http://www.w3.org/2000/svg">
<mask id="mask0_13_1143" style="mask-type:alpha" maskUnits="userSpaceOnUse" x="0" y="0" width="25" height="25">
<rect x="0.5" y="0.976562" width="24" height="24" fill="#D9D9D9"/>
</mask>
<g mask="url(#mask0_13_1143)">
<path d="M5.5 21.9766C4.95 21.9766 4.47917 21.7807 4.0875 21.3891C3.69583 20.9974 3.5 20.5266 3.5 19.9766V5.97656C3.5 5.42656 3.69583 4.95573 4.0875 4.56406C4.47917 4.1724 4.95 3.97656 5.5 3.97656H19.5C20.05 3.97656 20.5208 4.1724 20.9125 4.56406C21.3042 4.95573 21.5 5.42656 21.5 5.97656V19.9766C21.5 20.5266 21.3042 20.9974 20.9125 21.3891C20.5208 21.7807 20.05 21.9766 19.5 21.9766H5.5ZM5.5 19.9766H11.5V5.97656H5.5V19.9766ZM13.5 19.9766H19.5V12.9766H13.5V19.9766ZM13.5 10.9766H19.5V5.97656H13.5V10.9766Z" fill="#343A40"/>
</g>
</svg>
