<svg width="21" height="22" viewBox="0 0 21 22" fill="none" xmlns="http://www.w3.org/2000/svg">
<path d="M17.35 21.9516C17.2167 21.9516 17.0917 21.9307 16.975 21.8891C16.8583 21.8474 16.75 21.7766 16.65 21.6766L11.55 16.5766C11.45 16.4766 11.3792 16.3682 11.3375 16.2516C11.2958 16.1349 11.275 16.0099 11.275 15.8766C11.275 15.7432 11.2958 15.6182 11.3375 15.5016C11.3792 15.3849 11.45 15.2766 11.55 15.1766L13.675 13.0516C13.775 12.9516 13.8833 12.8807 14 12.8391C14.1167 12.7974 14.2417 12.7766 14.375 12.7766C14.5083 12.7766 14.6333 12.7974 14.75 12.8391C14.8667 12.8807 14.975 12.9516 15.075 13.0516L20.175 18.1516C20.275 18.2516 20.3458 18.3599 20.3875 18.4766C20.4292 18.5932 20.45 18.7182 20.45 18.8516C20.45 18.9849 20.4292 19.1099 20.3875 19.2266C20.3458 19.3432 20.275 19.4516 20.175 19.5516L18.05 21.6766C17.95 21.7766 17.8417 21.8474 17.725 21.8891C17.6083 21.9307 17.4833 21.9516 17.35 21.9516ZM17.35 19.5766L18.075 18.8516L14.4 15.1766L13.675 15.9016L17.35 19.5766ZM3.625 21.9766C3.49167 21.9766 3.3625 21.9516 3.2375 21.9016C3.1125 21.8516 3 21.7766 2.9 21.6766L0.8 19.5766C0.7 19.4766 0.625 19.3641 0.575 19.2391C0.525 19.1141 0.5 18.9849 0.5 18.8516C0.5 18.7182 0.525 18.5932 0.575 18.4766C0.625 18.3599 0.7 18.2516 0.8 18.1516L6.1 12.8516H8.225L9.075 12.0016L4.95 7.87656H3.525L0.5 4.85156L3.325 2.02656L6.35 5.05156V6.47656L10.475 10.6016L13.375 7.70156L12.3 6.62656L13.7 5.22656H10.875L10.175 4.52656L13.725 0.976562L14.425 1.67656V4.50156L15.825 3.10156L19.375 6.65156C19.6583 6.9349 19.875 7.25573 20.025 7.61406C20.175 7.9724 20.25 8.35156 20.25 8.75156C20.25 9.15156 20.175 9.5349 20.025 9.90156C19.875 10.2682 19.6583 10.5932 19.375 10.8766L17.25 8.75156L15.85 10.1516L14.8 9.10156L9.625 14.2766V16.3766L4.325 21.6766C4.225 21.7766 4.11667 21.8516 4 21.9016C3.88333 21.9516 3.75833 21.9766 3.625 21.9766ZM3.625 19.5766L7.875 15.3266V14.6016H7.15L2.9 18.8516L3.625 19.5766ZM3.625 19.5766L2.9 18.8516L3.275 19.2016L3.625 19.5766Z" fill="#1C1B1F"/>
</svg>
