<svg width="22" height="21" viewBox="0 0 22 21" fill="none" xmlns="http://www.w3.org/2000/svg">
<path d="M18.6484 12.4465H20.6484V5.97148C20.6484 5.63815 20.5734 5.32982 20.4234 5.04648C20.2734 4.76315 20.0651 4.52982 19.7984 4.34648L14.7984 0.771484C14.4484 0.521484 14.0651 0.396484 13.6484 0.396484C13.2318 0.396484 12.8484 0.521484 12.4984 0.771484L7.49844 4.34648C7.23177 4.52982 7.02344 4.76315 6.87344 5.04648C6.72344 5.32982 6.64844 5.63815 6.64844 5.97148V7.44648H8.64844V5.94648L13.6484 2.44648L18.6484 5.94648V12.4465ZM14.6484 6.44648C14.5151 6.44648 14.3984 6.39648 14.2984 6.29648C14.1984 6.19648 14.1484 6.07982 14.1484 5.94648C14.1484 5.81315 14.1984 5.69648 14.2984 5.59648C14.3984 5.49648 14.5151 5.44648 14.6484 5.44648C14.7818 5.44648 14.8984 5.49648 14.9984 5.59648C15.0984 5.69648 15.1484 5.81315 15.1484 5.94648C15.1484 6.07982 15.0984 6.19648 14.9984 6.29648C14.8984 6.39648 14.7818 6.44648 14.6484 6.44648ZM12.6484 6.44648C12.5151 6.44648 12.3984 6.39648 12.2984 6.29648C12.1984 6.19648 12.1484 6.07982 12.1484 5.94648C12.1484 5.81315 12.1984 5.69648 12.2984 5.59648C12.3984 5.49648 12.5151 5.44648 12.6484 5.44648C12.7818 5.44648 12.8984 5.49648 12.9984 5.59648C13.0984 5.69648 13.1484 5.81315 13.1484 5.94648C13.1484 6.07982 13.0984 6.19648 12.9984 6.29648C12.8984 6.39648 12.7818 6.44648 12.6484 6.44648ZM14.6484 8.44648C14.5151 8.44648 14.3984 8.39648 14.2984 8.29648C14.1984 8.19648 14.1484 8.07982 14.1484 7.94648C14.1484 7.81315 14.1984 7.69648 14.2984 7.59648C14.3984 7.49648 14.5151 7.44648 14.6484 7.44648C14.7818 7.44648 14.8984 7.49648 14.9984 7.59648C15.0984 7.69648 15.1484 7.81315 15.1484 7.94648C15.1484 8.07982 15.0984 8.19648 14.9984 8.29648C14.8984 8.39648 14.7818 8.44648 14.6484 8.44648ZM12.6484 8.44648C12.5151 8.44648 12.3984 8.39648 12.2984 8.29648C12.1984 8.19648 12.1484 8.07982 12.1484 7.94648C12.1484 7.81315 12.1984 7.69648 12.2984 7.59648C12.3984 7.49648 12.5151 7.44648 12.6484 7.44648C12.7818 7.44648 12.8984 7.49648 12.9984 7.59648C13.0984 7.69648 13.1484 7.81315 13.1484 7.94648C13.1484 8.07982 13.0984 8.19648 12.9984 8.29648C12.8984 8.39648 12.7818 8.44648 12.6484 8.44648ZM13.5984 18.8465L19.5484 16.9965C19.4651 16.8465 19.3443 16.7173 19.1859 16.609C19.0276 16.5007 18.8484 16.4465 18.6484 16.4465H13.5984C13.1484 16.4465 12.7901 16.4298 12.5234 16.3965C12.2568 16.3632 11.9818 16.2965 11.6984 16.1965L10.2734 15.7215C10.0068 15.6382 9.8151 15.4715 9.69844 15.2215C9.58177 14.9715 9.5651 14.7132 9.64844 14.4465C9.73177 14.1798 9.89427 13.984 10.1359 13.859C10.3776 13.734 10.6318 13.7132 10.8984 13.7965L11.9484 14.1465C12.2318 14.2298 12.5526 14.2965 12.9109 14.3465C13.2693 14.3965 13.7568 14.4298 14.3734 14.4465H14.6484C14.6484 14.2632 14.5943 14.0882 14.4859 13.9215C14.3776 13.7548 14.2484 13.6465 14.0984 13.5965L8.24844 11.4465H6.64844V16.9465L13.5984 18.8465ZM13.0734 20.7965L6.64844 18.9965C6.5151 19.4298 6.2526 19.7798 5.86094 20.0465C5.46927 20.3132 5.0651 20.4465 4.64844 20.4465H2.64844C2.09844 20.4465 1.6276 20.2507 1.23594 19.859C0.844271 19.4673 0.648438 18.9965 0.648438 18.4465V11.4465C0.648438 10.8965 0.844271 10.4257 1.23594 10.034C1.6276 9.64232 2.09844 9.44648 2.64844 9.44648H8.24844C8.3651 9.44648 8.48177 9.45899 8.59844 9.48398C8.7151 9.50898 8.82344 9.53815 8.92344 9.57148L14.7984 11.7465C15.3484 11.9465 15.7943 12.2965 16.1359 12.7965C16.4776 13.2965 16.6484 13.8465 16.6484 14.4465H18.6484C19.4818 14.4465 20.1901 14.7215 20.7734 15.2715C21.3568 15.8215 21.6484 16.5465 21.6484 17.4465C21.6484 17.8132 21.5526 18.1007 21.3609 18.309C21.1693 18.5173 20.8734 18.6882 20.4734 18.8215L14.2234 20.7715C14.0401 20.8382 13.8484 20.8715 13.6484 20.8715C13.4484 20.8715 13.2568 20.8465 13.0734 20.7965ZM2.64844 18.4465H4.64844V11.4465H2.64844V18.4465Z" fill="#343A40"/>
</svg>
