<svg width="21" height="17" viewBox="0 0 21 17" fill="none" xmlns="http://www.w3.org/2000/svg">
<path d="M5.5 12.9766C5.78333 12.9766 6.02083 12.8807 6.2125 12.6891C6.40417 12.4974 6.5 12.2599 6.5 11.9766C6.5 11.6932 6.40417 11.4557 6.2125 11.2641C6.02083 11.0724 5.78333 10.9766 5.5 10.9766C5.21667 10.9766 4.97917 11.0724 4.7875 11.2641C4.59583 11.4557 4.5 11.6932 4.5 11.9766C4.5 12.2599 4.59583 12.4974 4.7875 12.6891C4.97917 12.8807 5.21667 12.9766 5.5 12.9766ZM5.5 9.97656C5.78333 9.97656 6.02083 9.88073 6.2125 9.68906C6.40417 9.4974 6.5 9.2599 6.5 8.97656V5.97656C6.5 5.69323 6.40417 5.45573 6.2125 5.26406C6.02083 5.0724 5.78333 4.97656 5.5 4.97656C5.21667 4.97656 4.97917 5.0724 4.7875 5.26406C4.59583 5.45573 4.5 5.69323 4.5 5.97656V8.97656C4.5 9.2599 4.59583 9.4974 4.7875 9.68906C4.97917 9.88073 5.21667 9.97656 5.5 9.97656ZM9.5 11.9766H15.5C15.7833 11.9766 16.0208 11.8807 16.2125 11.6891C16.4042 11.4974 16.5 11.2599 16.5 10.9766C16.5 10.6932 16.4042 10.4557 16.2125 10.2641C16.0208 10.0724 15.7833 9.97656 15.5 9.97656H9.5C9.21667 9.97656 8.97917 10.0724 8.7875 10.2641C8.59583 10.4557 8.5 10.6932 8.5 10.9766C8.5 11.2599 8.59583 11.4974 8.7875 11.6891C8.97917 11.8807 9.21667 11.9766 9.5 11.9766ZM9.5 7.97656H15.5C15.7833 7.97656 16.0208 7.88073 16.2125 7.68906C16.4042 7.4974 16.5 7.2599 16.5 6.97656C16.5 6.69323 16.4042 6.45573 16.2125 6.26406C16.0208 6.0724 15.7833 5.97656 15.5 5.97656H9.5C9.21667 5.97656 8.97917 6.0724 8.7875 6.26406C8.59583 6.45573 8.5 6.69323 8.5 6.97656C8.5 7.2599 8.59583 7.4974 8.7875 7.68906C8.97917 7.88073 9.21667 7.97656 9.5 7.97656ZM2.5 16.9766C1.95 16.9766 1.47917 16.7807 1.0875 16.3891C0.695833 15.9974 0.5 15.5266 0.5 14.9766V2.97656C0.5 2.42656 0.695833 1.95573 1.0875 1.56406C1.47917 1.1724 1.95 0.976562 2.5 0.976562H18.5C19.05 0.976562 19.5208 1.1724 19.9125 1.56406C20.3042 1.95573 20.5 2.42656 20.5 2.97656V14.9766C20.5 15.5266 20.3042 15.9974 19.9125 16.3891C19.5208 16.7807 19.05 16.9766 18.5 16.9766H2.5ZM2.5 14.9766H18.5V2.97656H2.5V14.9766Z" fill="#1C1B1F"/>
</svg>
