<svg width="17" height="20" viewBox="0 0 17 20" fill="none" xmlns="http://www.w3.org/2000/svg">
<path d="M8.5 10.977C7.51667 10.977 6.6875 10.6395 6.0125 9.96445C5.3375 9.28945 5 8.46029 5 7.47695C5 6.49362 5.3375 5.66445 6.0125 4.98945C6.6875 4.31445 7.51667 3.97695 8.5 3.97695C9.48333 3.97695 10.3125 4.31445 10.9875 4.98945C11.6625 5.66445 12 6.49362 12 7.47695C12 8.46029 11.6625 9.28945 10.9875 9.96445C10.3125 10.6395 9.48333 10.977 8.5 10.977ZM8.5 8.97695C8.93333 8.97695 9.29167 8.83529 9.575 8.55195C9.85833 8.26862 10 7.91029 10 7.47695C10 7.04362 9.85833 6.68529 9.575 6.40195C9.29167 6.11862 8.93333 5.97695 8.5 5.97695C8.06667 5.97695 7.70833 6.11862 7.425 6.40195C7.14167 6.68529 7 7.04362 7 7.47695C7 7.91029 7.14167 8.26862 7.425 8.55195C7.70833 8.83529 8.06667 8.97695 8.5 8.97695ZM8.5 2.10195L2.5 4.35195V9.07695C2.5 9.97695 2.625 10.852 2.875 11.702C3.125 12.552 3.46667 13.352 3.9 14.102C4.6 13.752 5.33333 13.477 6.1 13.277C6.86667 13.077 7.66667 12.977 8.5 12.977C9.33333 12.977 10.1333 13.077 10.9 13.277C11.6667 13.477 12.4 13.752 13.1 14.102C13.5333 13.352 13.875 12.552 14.125 11.702C14.375 10.852 14.5 9.97695 14.5 9.07695V4.35195L8.5 2.10195ZM8.5 14.977C7.9 14.977 7.31667 15.0436 6.75 15.177C6.18333 15.3103 5.64167 15.4936 5.125 15.727C5.60833 16.227 6.13333 16.6603 6.7 17.027C7.26667 17.3936 7.86667 17.677 8.5 17.877C9.13333 17.677 9.73333 17.3936 10.3 17.027C10.8667 16.6603 11.3917 16.227 11.875 15.727C11.3583 15.4936 10.8167 15.3103 10.25 15.177C9.68333 15.0436 9.1 14.977 8.5 14.977ZM8.5 19.877C8.38333 19.877 8.275 19.8686 8.175 19.852C8.075 19.8353 7.975 19.8103 7.875 19.777C5.625 19.027 3.83333 17.6395 2.5 15.6145C1.16667 13.5895 0.5 11.4103 0.5 9.07695V4.35195C0.5 3.93529 0.620833 3.56029 0.8625 3.22695C1.10417 2.89362 1.41667 2.65195 1.8 2.50195L7.8 0.251953C8.03333 0.16862 8.26667 0.126953 8.5 0.126953C8.73333 0.126953 8.96667 0.16862 9.2 0.251953L15.2 2.50195C15.5833 2.65195 15.8958 2.89362 16.1375 3.22695C16.3792 3.56029 16.5 3.93529 16.5 4.35195V9.07695C16.5 11.4103 15.8333 13.5895 14.5 15.6145C13.1667 17.6395 11.375 19.027 9.125 19.777C9.025 19.8103 8.925 19.8353 8.825 19.852C8.725 19.8686 8.61667 19.877 8.5 19.877Z" fill="#1C1B1F"/>
</svg>
