<svg width="23" height="17" viewBox="0 0 23 17" fill="none" xmlns="http://www.w3.org/2000/svg">
<path d="M1.5 16.9766C1.21667 16.9766 0.979167 16.8807 0.7875 16.6891C0.595833 16.4974 0.5 16.2599 0.5 15.9766V14.1766C0.5 13.6099 0.645833 13.0891 0.9375 12.6141C1.22917 12.1391 1.61667 11.7766 2.1 11.5266C3.13333 11.0099 4.18333 10.6224 5.25 10.3641C6.31667 10.1057 7.4 9.97656 8.5 9.97656C9.6 9.97656 10.6833 10.1057 11.75 10.3641C12.8167 10.6224 13.8667 11.0099 14.9 11.5266C15.3833 11.7766 15.7708 12.1391 16.0625 12.6141C16.3542 13.0891 16.5 13.6099 16.5 14.1766V15.9766C16.5 16.2599 16.4042 16.4974 16.2125 16.6891C16.0208 16.8807 15.7833 16.9766 15.5 16.9766H1.5ZM18.025 16.9766C18.175 16.8599 18.2917 16.7141 18.375 16.5391C18.4583 16.3641 18.5 16.1682 18.5 15.9516V13.9766C18.5 13.2432 18.2958 12.5391 17.8875 11.8641C17.4792 11.1891 16.9 10.6099 16.15 10.1266C17 10.2266 17.8 10.3974 18.55 10.6391C19.3 10.8807 20 11.1766 20.65 11.5266C21.25 11.8599 21.7083 12.2307 22.025 12.6391C22.3417 13.0474 22.5 13.4932 22.5 13.9766V15.9766C22.5 16.2599 22.4042 16.4974 22.2125 16.6891C22.0208 16.8807 21.7833 16.9766 21.5 16.9766H18.025ZM8.5 8.97656C7.4 8.97656 6.45833 8.5849 5.675 7.80156C4.89167 7.01823 4.5 6.07656 4.5 4.97656C4.5 3.87656 4.89167 2.9349 5.675 2.15156C6.45833 1.36823 7.4 0.976562 8.5 0.976562C9.6 0.976562 10.5417 1.36823 11.325 2.15156C12.1083 2.9349 12.5 3.87656 12.5 4.97656C12.5 6.07656 12.1083 7.01823 11.325 7.80156C10.5417 8.5849 9.6 8.97656 8.5 8.97656ZM18.5 4.97656C18.5 6.07656 18.1083 7.01823 17.325 7.80156C16.5417 8.5849 15.6 8.97656 14.5 8.97656C14.3167 8.97656 14.0833 8.95573 13.8 8.91406C13.5167 8.8724 13.2833 8.82656 13.1 8.77656C13.55 8.24323 13.8958 7.65156 14.1375 7.00156C14.3792 6.35156 14.5 5.67656 14.5 4.97656C14.5 4.27656 14.3792 3.60156 14.1375 2.95156C13.8958 2.30156 13.55 1.7099 13.1 1.17656C13.3333 1.09323 13.5667 1.03906 13.8 1.01406C14.0333 0.989063 14.2667 0.976562 14.5 0.976562C15.6 0.976562 16.5417 1.36823 17.325 2.15156C18.1083 2.9349 18.5 3.87656 18.5 4.97656ZM2.5 14.9766H14.5V14.1766C14.5 13.9932 14.4542 13.8266 14.3625 13.6766C14.2708 13.5266 14.15 13.4099 14 13.3266C13.1 12.8766 12.1917 12.5391 11.275 12.3141C10.3583 12.0891 9.43333 11.9766 8.5 11.9766C7.56667 11.9766 6.64167 12.0891 5.725 12.3141C4.80833 12.5391 3.9 12.8766 3 13.3266C2.85 13.4099 2.72917 13.5266 2.6375 13.6766C2.54583 13.8266 2.5 13.9932 2.5 14.1766V14.9766ZM8.5 6.97656C9.05 6.97656 9.52083 6.78073 9.9125 6.38906C10.3042 5.9974 10.5 5.52656 10.5 4.97656C10.5 4.42656 10.3042 3.95573 9.9125 3.56406C9.52083 3.1724 9.05 2.97656 8.5 2.97656C7.95 2.97656 7.47917 3.1724 7.0875 3.56406C6.69583 3.95573 6.5 4.42656 6.5 4.97656C6.5 5.52656 6.69583 5.9974 7.0875 6.38906C7.47917 6.78073 7.95 6.97656 8.5 6.97656Z" fill="#343A40"/>
</svg>
