<svg width="19" height="17" viewBox="0 0 19 17" fill="none" xmlns="http://www.w3.org/2000/svg">
<path d="M15.1396 17C14.1836 17 13.3678 16.6583 12.6921 15.975C12.0163 15.2917 11.6785 14.4667 11.6785 13.5C11.6785 12.5333 12.0163 11.7083 12.6921 11.025C13.3678 10.3417 14.1836 10 15.1396 10C16.0955 10 16.9113 10.3417 17.587 11.025C18.2628 11.7083 18.6006 12.5333 18.6006 13.5C18.6006 14.4667 18.2628 15.2917 17.587 15.975C16.9113 16.6583 16.0955 17 15.1396 17ZM15.1396 15C15.5516 15 15.9018 14.8542 16.1902 14.5625C16.4787 14.2708 16.6229 13.9167 16.6229 13.5C16.6229 13.0833 16.4787 12.7292 16.1902 12.4375C15.9018 12.1458 15.5516 12 15.1396 12C14.7275 12 14.3773 12.1458 14.0889 12.4375C13.8004 12.7292 13.6562 13.0833 13.6562 13.5C13.6562 13.9167 13.8004 14.2708 14.0889 14.5625C14.3773 14.8542 14.7275 15 15.1396 15ZM0.800781 14.5V12.5H9.70071V14.5H0.800781ZM4.26186 7C3.30595 7 2.49012 6.65833 1.81438 5.975C1.13865 5.29167 0.800781 4.46667 0.800781 3.5C0.800781 2.53333 1.13865 1.70833 1.81438 1.025C2.49012 0.341667 3.30595 0 4.26186 0C5.21778 0 6.03361 0.341667 6.70934 1.025C7.38508 1.70833 7.72295 2.53333 7.72295 3.5C7.72295 4.46667 7.38508 5.29167 6.70934 5.975C6.03361 6.65833 5.21778 7 4.26186 7ZM4.26186 5C4.6739 5 5.02413 4.85417 5.31255 4.5625C5.60097 4.27083 5.74519 3.91667 5.74519 3.5C5.74519 3.08333 5.60097 2.72917 5.31255 2.4375C5.02413 2.14583 4.6739 2 4.26186 2C3.84983 2 3.4996 2.14583 3.21118 2.4375C2.92275 2.72917 2.77854 3.08333 2.77854 3.5C2.77854 3.91667 2.92275 4.27083 3.21118 4.5625C3.4996 4.85417 3.84983 5 4.26186 5ZM9.70071 4.5V2.5H18.6006V4.5H9.70071Z" fill="#757B7E"/>
</svg>
